PathFileType	4	(X/Y/Z)	/Users/itak/Documents/Research/Walk-IL/dataset/trc/00433_00167.trc
DataRate	CameraRate	NumFrames	NumMarkers	Units	OrigDataRate	OrigDataStartFrame	OrigNumFrames
100.000000	100.000000	4	53	mm	100.000000	307	615
Frame#	Time	RPSI			LPSI			L3			STRN			T10			C7			CLAV			RBAK			LBAK			LSHO			LUPA			LAEL			LAOL			LWTS			LWPS			LFRA			LIFD			LHPS			LHTS			RSHO			RUPA			RAEL			RAOL			RWTS			RWPS			RFRA			RIFD			RHTS			RHPS			RBHD			LFHD			RFHD			LBHD			LHIP			RHIP			RASI			LASI			LKNE			LTHI			LANK			LTIP			LTOE			LMT1			LMT5			LHEE			RKNE			RTHI			RANK			RTIP			RTOE			RMT1			RMT5			RHEE			
		X1	Y1	Z1	X2	Y2	Z2	X3	Y3	Z3	X4	Y4	Z4	X5	Y5	Z5	X6	Y6	Z6	X7	Y7	Z7	X8	Y8	Z8	X9	Y9	Z9	X10	Y10	Z10	X11	Y11	Z11	X12	Y12	Z12	X13	Y13	Z13	X14	Y14	Z14	X15	Y15	Z15	X16	Y16	Z16	X17	Y17	Z17	X18	Y18	Z18	X19	Y19	Z19	X20	Y20	Z20	X21	Y21	Z21	X22	Y22	Z22	X23	Y23	Z23	X24	Y24	Z24	X25	Y25	Z25	X26	Y26	Z26	X27	Y27	Z27	X28	Y28	Z28	X29	Y29	Z29	X30	Y30	Z30	X31	Y31	Z31	X32	Y32	Z32	X33	Y33	Z33	X34	Y34	Z34	X35	Y35	Z35	X36	Y36	Z36	X37	Y37	Z37	X38	Y38	Z38	X39	Y39	Z39	X40	Y40	Z40	X41	Y41	Z41	X42	Y42	Z42	X43	Y43	Z43	X44	Y44	Z44	X45	Y45	Z45	X46	Y46	Z46	X47	Y47	Z47	X48	Y48	Z48	X49	Y49	Z49	X50	Y50	Z50	X51	Y51	Z51	X52	Y52	Z52	X53	Y53	Z53	

308	3.07	-140.5183410644531	944.4823608398438	97.19316101074219	-46.61093139648438	945.0018920898438	-9.970158576965332	-97.09970092773438	1041.947631835938	68.18870544433594	140.5541839599609	1231.2880859375	210.4137115478516	-108.3077774047852	1165.4443359375	54.84512329101562	-48.05584335327148	1431.268432617188	93.61026763916016	115.9882125854492	1345.082885742188	180.9750518798828	-155.3651123046875	1320.11669921875	144.5372009277344	-26.0766773223877	1380.129028320312	-5.186416625976562	102.8996276855469	1394.168579101562	-20.41506767272949	135.02001953125	1275.7587890625	-111.7419128417969	162.13671875	1066.051513671875	-147.0090026855469	63.22472381591797	1047.860473632812	-120.3353118896484	223.8702087402344	863.1287841796875	-82.63034820556641	204.5968170166016	850.7237548828125	-152.9644622802734	186.6008911132812	979.57763671875	-151.0748443603516	226.7693634033203	694.1040649414062	-93.40883636474609	209.7392578125	769.9068603515625	-152.8934936523438	240.848388671875	772.7359008789062	-89.28189849853516	-70.38736724853516	1409.64990234375	268.7825927734375	-130.3123016357422	1355.10205078125	325.5263366699219	-189.8421325683594	1073.782836914062	375.7151184082031	-213.9308929443359	1059.187744140625	313.2353820800781	-97.58614349365234	861.7237548828125	394.385498046875	-185.4906005859375	855.2622680664062	408.6391906738281	-196.7192535400391	1016.21044921875	386.6541748046875	-118.9735336303711	702.676513671875	390.9156494140625	-102.8701782226562	760.0448608398438	405.5301208496094	-178.6297760009766	766.5697021484375	410.2974853515625	-20.11189460754395	1627.4345703125	195.1438903808594	174.9203948974609	1642.993896484375	128.1069793701172	108.5304870605469	1648.9892578125	240.5679016113281	56.58594131469727	1623.574096679688	33.61777114868164	142.9916839599609	848.6632690429688	0.7251176238059998	-152.2660522460938	837.6029052734375	275.2766418457031	-30.15033531188965	876.35693359375	301.2606811523438	149.6823120117188	889.1903686523438	122.528205871582	212.1528778076172	440.7227172851562	120.8957672119141	212.4898529052734	593.3076782226562	85.39479827880859	167.0970153808594	29.74260139465332	103.1278228759766	217.2017364501953	281.9125366210938	120.733757019043	290.5643920898438	43.58734512329102	302.338134765625	215.5352325439453	46.01334762573242	275.9483337402344	287.7932739257812	42.60923385620117	189.4953460693359	95.08571624755859	32.41350173950195	104.642204284668	-170.0337982177734	457.4507751464844	282.2209777832031	-136.7318878173828	705.086669921875	311.4440612792969	-451.4771423339844	185.7858276367188	79.87745666503906	-262.4231567382812	351.1468811035156	237.9041137695312	-316.8350524902344	33.9210205078125	65.29839324951172	-330.5022888183594	85.91937255859375	31.07463264465332	-401.8233947753906	68.63971710205078	107.6493759155273	-457.6138000488281	251.9069213867188	33.55102157592773	
309	3.08	-133.6204528808594	945.4320068359375	99.36079406738281	-39.30369186401367	946.5289916992188	-7.532027721405029	-89.55152130126953	1043.460205078125	70.40971374511719	147.6793975830078	1232.786987304688	212.9539794921875	-100.7701797485352	1166.994750976562	56.91312408447266	-40.52416229248047	1432.869873046875	95.69805145263672	123.2990112304688	1346.60302734375	183.4454803466797	-148.0119018554688	1321.765625	146.5645904541016	-18.34867477416992	1381.631469726562	-2.99890661239624	110.5707244873047	1395.731689453125	-17.88879203796387	143.5453948974609	1277.623657226562	-109.2252960205078	173.2944030761719	1068.387451171875	-144.2834320068359	74.55619049072266	1048.463256835938	-118.1083602905273	240.4405364990234	868.8348999023438	-76.29705810546875	221.7380981445312	854.3638916015625	-146.3527679443359	200.0840911865234	982.516845703125	-146.9048461914062	250.1880187988281	700.1653442382812	-83.77117156982422	230.0853576660156	773.9668579101562	-144.7531280517578	261.0350646972656	779.3493041992188	-81.30728149414062	-63.10832214355469	1411.418823242188	270.783203125	-122.9444274902344	1357.03857421875	327.6611633300781	-181.5825653076172	1076.169189453125	380.33056640625	-206.1522064208984	1060.605590820312	318.2665405273438	-86.30111694335938	865.6087036132812	400.6593017578125	-173.8235931396484	858.1359252929688	415.9795837402344	-187.6373291015625	1018.652770996094	392.0566101074219	-105.3323593139648	706.4058227539062	399.0815124511719	-89.8739013671875	764.1116333007812	412.9324645996094	-165.6773681640625	769.6199340820312	418.5311279296875	-12.28521633148193	1629.128295898438	197.1692504882812	182.810302734375	1644.434814453125	130.2225494384766	116.3473587036133	1650.522583007812	242.6370239257812	64.49933624267578	1625.14501953125	35.69362258911133	149.8011169433594	849.5828247070312	3.384379625320435	-144.6186218261719	838.6205444335938	277.6795959472656	-23.4741325378418	878.2176513671875	303.9454345703125	156.6092987060547	890.0505981445312	125.2136306762695	214.8298645019531	440.4439086914062	121.7607955932617	216.6401519775391	593.3016357421875	87.15795135498047	167.1185760498047	29.65481948852539	103.0124969482422	218.7093811035156	281.5580139160156	121.1572113037109	290.4127502441406	43.71304321289062	302.2774047851562	215.3938293457031	46.09709548950195	275.8999938964844	287.7569885253906	42.59539413452148	189.5096588134766	95.0262451171875	32.32776260375977	104.5099258422852	-156.8115234375	458.5836791992188	292.108154296875	-127.698127746582	706.7295532226562	316.4129333496094	-439.5428161621094	191.778564453125	87.42091369628906	-249.5377349853516	353.0278015136719	247.4393157958984	-308.2096557617188	34.02556991577148	75.54789733886719	-320.1926574707031	88.70287322998047	40.72199630737305	-392.78369140625	73.27177429199219	116.3000946044922	-444.7025451660156	257.6531982421875	40.88779830932617	
310	3.09	-126.9152755737305	946.294921875	101.6614532470703	-32.3110466003418	947.9077758789062	-5.047119140625	-82.23900604248047	1044.8515625	72.63932037353516	154.6072998046875	1234.171997070312	215.4893951416016	-93.43610382080078	1168.434936523438	58.96905899047852	-33.1551399230957	1434.3681640625	97.77311706542969	130.4160308837891	1348.001098632812	185.9222869873047	-140.8566741943359	1323.302001953125	148.5130615234375	-10.75510120391846	1383.045288085938	-0.831481397151947	118.1225509643555	1397.205810546875	-15.3521203994751	151.9570922851562	1279.405151367188	-106.7043151855469	184.2736511230469	1070.719848632812	-141.5830383300781	85.76537322998047	1049.047607421875	-115.9166946411133	256.7070617675781	874.7926025390625	-69.97449493408203	238.6417083740234	858.222412109375	-139.6981658935547	213.3511352539062	985.5343017578125	-142.7328186035156	273.4625854492188	706.822265625	-73.99853515625	250.2567596435547	778.3953857421875	-136.5231170654297	280.9808959960938	786.4268798828125	-73.30499267578125	-56.05778503417969	1413.03125	272.7621154785156	-115.8390884399414	1358.78125	329.7244873046875	-173.6411437988281	1078.395751953125	384.7864379882812	-198.5442657470703	1061.807373046875	323.1031494140625	-75.18348693847656	869.6354370117188	407.1067504882812	-162.3263549804688	860.9920654296875	423.2326049804688	-178.8447570800781	1020.950439453125	397.2984008789062	-91.44219207763672	710.344482421875	407.8989868164062	-76.85012817382812	768.4329223632812	420.8468627929688	-152.7056274414062	772.7357177734375	426.9747314453125	-4.659907341003418	1630.696411132812	199.2182159423828	190.4900665283203	1645.790283203125	132.3617095947266	123.9640426635742	1651.978759765625	244.733154296875	72.20890045166016	1626.590087890625	37.79534530639648	156.3543701171875	850.4157104492188	5.963087558746338	-137.0946350097656	839.6181030273438	280.3136596679688	-16.8691349029541	879.9948120117188	306.6167602539062	163.3916625976562	890.86669921875	127.8137512207031	217.4056549072266	440.161865234375	122.5378189086914	220.6107482910156	593.2758178710938	88.80394744873047	167.1510467529297	29.57699584960938	102.8976135253906	220.1634368896484	281.2140197753906	121.5143585205078	290.3157653808594	43.83969497680664	302.1881408691406	215.3050994873047	46.19965362548828	275.8286437988281	287.7522583007812	42.55647277832031	189.4943695068359	94.97109985351562	32.25540924072266	104.3935623168945	-143.4849853515625	459.8037109375	301.8763122558594	-118.656135559082	708.3526611328125	321.4728088378906	-427.0010986328125	197.0216064453125	95.24327087402344	-236.3961334228516	354.8677978515625	256.8921508789062	-298.1602783203125	34.49978637695312	86.79362487792969	-308.7826232910156	91.29590606689453	51.04458999633789	-382.478759765625	77.81494903564453	125.8005676269531	-431.4985656738281	262.3991088867188	48.19995498657227	
311	3.1	-120.388313293457	947.0855712890625	104.1255950927734	-25.63786125183105	949.1390380859375	-2.496292114257812	-75.15913391113281	1046.126098632812	74.88925933837891	161.3486328125	1235.458251953125	218.0182495117188	-86.29303741455078	1169.769287109375	61.03253555297852	-25.94962501525879	1435.767456054688	99.83725738525391	137.3425903320312	1349.29248046875	188.4011688232422	-133.8908538818359	1324.734375	150.3970794677734	-3.30256724357605	1384.36962890625	1.316644430160522	125.5459518432617	1398.596069335938	-12.81006145477295	160.2601776123047	1281.10595703125	-104.1714859008789	195.0999450683594	1073.043823242188	-138.8735504150391	96.8748779296875	1049.612670898438	-113.7457046508789	272.6232604980469	880.9510498046875	-63.66469192504883	255.2759246826172	862.2855834960938	-133.0140991210938	226.4072265625	988.6224365234375	-138.5373077392578	296.4288940429688	714.029052734375	-64.15025329589844	270.1710205078125	783.1778564453125	-128.2397155761719	300.5757141113281	793.9070434570312	-65.29849243164062	-49.22414016723633	1414.5087890625	274.7213745117188	-108.98486328125	1360.3544921875	331.7264099121094	-166.0030364990234	1080.475708007812	389.0620727539062	-191.0908203125	1062.824340820312	327.7215576171875	-64.27218627929688	873.8173828125	413.6884460449219	-151.0540466308594	863.8378295898438	430.3321838378906	-170.3410491943359	1023.116333007812	402.3473510742188	-77.36711120605469	714.5327758789062	417.3177490234375	-63.86834335327148	773.0363159179688	429.2279357910156	-139.7776031494141	775.9390258789062	435.5590515136719	2.77474308013916	1632.149047851562	201.2949066162109	197.9750213623047	1647.0546875	134.5344085693359	131.3907318115234	1653.351806640625	246.8670654296875	79.72769927978516	1627.919921875	39.92935562133789	162.6398010253906	851.1563720703125	8.441465377807617	-129.6645812988281	840.6288452148438	283.2303466796875	-10.26708984375	881.7031860351562	309.2740783691406	170.061767578125	891.6427612304688	130.3053588867188	219.8902130126953	439.8691711425781	123.2132873535156	224.3995208740234	593.2182006835938	90.30213165283203	167.1920471191406	29.5086727142334	102.78466796875	221.5676574707031	280.8747253417969	121.793098449707	290.2789001464844	43.9657096862793	302.0648193359375	215.2738647460938	46.32674026489258	275.7313842773438	287.7838134765625	42.48821258544922	189.4446868896484	94.92301940917969	32.19651794433594	104.2925415039062	-130.1025238037109	461.1270446777344	311.4916076660156	-109.5968551635742	709.979248046875	326.6340942382812	-413.9056396484375	201.3958282470703	103.384407043457	-223.0404815673828	356.6586608886719	266.2440490722656	-286.6593933105469	35.3185920715332	98.81182098388672	-296.3015441894531	93.63739776611328	61.89408493041992	-370.8904113769531	82.07162475585938	136.0313873291016	-418.0586853027344	266.0826721191406	55.57942962646484	
